<mxfile host="65bd71144e">
    <diagram id="NEfSWwv8Bu9G7L9CQEh1" name="Page-1">
        <mxGraphModel dx="1879" dy="1163" grid="0" gridSize="10" guides="1" tooltips="1" connect="1" arrows="1" fold="1" page="0" pageScale="1" pageWidth="850" pageHeight="1100" background="#ffffff" math="0" shadow="0">
            <root>
                <mxCell id="0"/>
                <mxCell id="1" parent="0"/>
                <mxCell id="68" style="edgeStyle=entityRelationEdgeStyle;html=1;exitX=1;exitY=0.5;exitDx=0;exitDy=0;fontColor=#808080;strokeColor=#808080;strokeWidth=2;" edge="1" parent="1" source="36" target="58">
                    <mxGeometry relative="1" as="geometry"/>
                </mxCell>
                <mxCell id="69" value="&lt;font style=&quot;font-size: 19px;&quot;&gt;&amp;nbsp; Unify&amp;nbsp; &amp;nbsp;&lt;/font&gt;" style="edgeLabel;html=1;align=center;verticalAlign=middle;resizable=0;points=[];fontColor=#808080;labelBackgroundColor=#FFFFFF;" vertex="1" connectable="0" parent="68">
                    <mxGeometry x="-0.0283" relative="1" as="geometry">
                        <mxPoint as="offset"/>
                    </mxGeometry>
                </mxCell>
                <mxCell id="36" value="" style="swimlane;startSize=0;fillColor=#FF0000;strokeColor=#808080;" vertex="1" parent="1">
                    <mxGeometry x="33" y="77" width="222" height="252" as="geometry"/>
                </mxCell>
                <mxCell id="28" value="" style="verticalLabelPosition=bottom;html=1;verticalAlign=top;align=center;strokeColor=#005700;fillColor=#008a00;shape=mxgraph.azure.storage;pointerEvents=1;fontColor=#ffffff;" vertex="1" parent="36">
                    <mxGeometry x="20" y="14" width="114" height="39" as="geometry"/>
                </mxCell>
                <mxCell id="29" value="" style="verticalLabelPosition=bottom;html=1;verticalAlign=top;align=center;strokeColor=#005700;fillColor=#008a00;shape=mxgraph.azure.storage;pointerEvents=1;fontColor=#ffffff;" vertex="1" parent="36">
                    <mxGeometry x="20" y="67" width="114" height="39" as="geometry"/>
                </mxCell>
                <mxCell id="30" value="" style="verticalLabelPosition=bottom;html=1;verticalAlign=top;align=center;strokeColor=#005700;fillColor=#008a00;shape=mxgraph.azure.storage;pointerEvents=1;fontColor=#ffffff;" vertex="1" parent="36">
                    <mxGeometry x="20" y="124" width="114" height="39" as="geometry"/>
                </mxCell>
                <mxCell id="37" value="" style="verticalLabelPosition=bottom;html=1;verticalAlign=top;align=center;strokeColor=#005700;fillColor=#008a00;shape=mxgraph.azure.storage;pointerEvents=1;fontColor=#ffffff;" vertex="1" parent="36">
                    <mxGeometry x="18" y="199" width="114" height="39" as="geometry"/>
                </mxCell>
                <mxCell id="43" value="crimes_2019" style="text;html=1;strokeColor=none;fillColor=none;align=center;verticalAlign=middle;whiteSpace=wrap;rounded=0;fontColor=#808080;" vertex="1" parent="36">
                    <mxGeometry x="145" y="23" width="60" height="30" as="geometry"/>
                </mxCell>
                <mxCell id="44" value="crimes_2020" style="text;html=1;strokeColor=none;fillColor=none;align=center;verticalAlign=middle;whiteSpace=wrap;rounded=0;fontColor=#808080;" vertex="1" parent="36">
                    <mxGeometry x="145" y="69" width="60" height="30" as="geometry"/>
                </mxCell>
                <mxCell id="45" value="crimes_2021" style="text;html=1;strokeColor=none;fillColor=none;align=center;verticalAlign=middle;whiteSpace=wrap;rounded=0;fontColor=#808080;" vertex="1" parent="36">
                    <mxGeometry x="145" y="128.5" width="60" height="30" as="geometry"/>
                </mxCell>
                <mxCell id="46" value="crimes_2024" style="text;html=1;strokeColor=none;fillColor=none;align=center;verticalAlign=middle;whiteSpace=wrap;rounded=0;fontColor=#808080;" vertex="1" parent="36">
                    <mxGeometry x="149" y="203.5" width="60" height="30" as="geometry"/>
                </mxCell>
                <mxCell id="57" value="..." style="text;html=1;strokeColor=none;fillColor=none;align=center;verticalAlign=middle;whiteSpace=wrap;rounded=0;fontColor=#808080;" vertex="1" parent="36">
                    <mxGeometry x="38" y="163" width="60" height="30" as="geometry"/>
                </mxCell>
                <mxCell id="74" style="edgeStyle=entityRelationEdgeStyle;html=1;exitX=1;exitY=0.5;exitDx=0;exitDy=0;entryX=0;entryY=0.25;entryDx=0;entryDy=0;strokeColor=#808080;strokeWidth=2;fontColor=#808080;" edge="1" parent="1" source="47" target="71">
                    <mxGeometry relative="1" as="geometry"/>
                </mxCell>
                <mxCell id="75" value="&lt;font style=&quot;font-size: 19px;&quot;&gt;&amp;nbsp; Unify&amp;nbsp;&amp;nbsp;&lt;/font&gt;" style="edgeLabel;html=1;align=center;verticalAlign=middle;resizable=0;points=[];fontColor=#808080;labelBackgroundColor=#FFFFFF;" vertex="1" connectable="0" parent="74">
                    <mxGeometry x="0.1432" y="1" relative="1" as="geometry">
                        <mxPoint as="offset"/>
                    </mxGeometry>
                </mxCell>
                <mxCell id="47" value="" style="swimlane;startSize=0;fillColor=#FF0000;strokeColor=#808080;" vertex="1" parent="1">
                    <mxGeometry x="33" y="382" width="222" height="252" as="geometry"/>
                </mxCell>
                <mxCell id="48" value="" style="verticalLabelPosition=bottom;html=1;verticalAlign=top;align=center;strokeColor=#005700;fillColor=#FF6666;shape=mxgraph.azure.storage;pointerEvents=1;fontColor=#ffffff;" vertex="1" parent="47">
                    <mxGeometry x="20" y="14" width="114" height="39" as="geometry"/>
                </mxCell>
                <mxCell id="49" value="" style="verticalLabelPosition=bottom;html=1;verticalAlign=top;align=center;strokeColor=#005700;fillColor=#FF6666;shape=mxgraph.azure.storage;pointerEvents=1;fontColor=#ffffff;" vertex="1" parent="47">
                    <mxGeometry x="20" y="67" width="114" height="39" as="geometry"/>
                </mxCell>
                <mxCell id="50" value="" style="verticalLabelPosition=bottom;html=1;verticalAlign=top;align=center;strokeColor=#005700;fillColor=#FF6666;shape=mxgraph.azure.storage;pointerEvents=1;fontColor=#ffffff;" vertex="1" parent="47">
                    <mxGeometry x="20" y="124" width="114" height="39" as="geometry"/>
                </mxCell>
                <mxCell id="51" value="" style="verticalLabelPosition=bottom;html=1;verticalAlign=top;align=center;strokeColor=#005700;fillColor=#FF6666;shape=mxgraph.azure.storage;pointerEvents=1;fontColor=#ffffff;" vertex="1" parent="47">
                    <mxGeometry x="18" y="199" width="114" height="39" as="geometry"/>
                </mxCell>
                <mxCell id="52" value="arrests_2019" style="text;html=1;strokeColor=none;fillColor=none;align=center;verticalAlign=middle;whiteSpace=wrap;rounded=0;fontColor=#808080;" vertex="1" parent="47">
                    <mxGeometry x="145" y="23" width="60" height="30" as="geometry"/>
                </mxCell>
                <mxCell id="53" value="arrests_2020" style="text;html=1;strokeColor=none;fillColor=none;align=center;verticalAlign=middle;whiteSpace=wrap;rounded=0;fontColor=#808080;" vertex="1" parent="47">
                    <mxGeometry x="145" y="69" width="60" height="30" as="geometry"/>
                </mxCell>
                <mxCell id="54" value="arrests_2021" style="text;html=1;strokeColor=none;fillColor=none;align=center;verticalAlign=middle;whiteSpace=wrap;rounded=0;fontColor=#808080;" vertex="1" parent="47">
                    <mxGeometry x="145" y="128.5" width="60" height="30" as="geometry"/>
                </mxCell>
                <mxCell id="55" value="arrests_2024" style="text;html=1;strokeColor=none;fillColor=none;align=center;verticalAlign=middle;whiteSpace=wrap;rounded=0;fontColor=#808080;" vertex="1" parent="47">
                    <mxGeometry x="149" y="203.5" width="60" height="30" as="geometry"/>
                </mxCell>
                <mxCell id="56" value="..." style="text;html=1;strokeColor=none;fillColor=none;align=center;verticalAlign=middle;whiteSpace=wrap;rounded=0;fontColor=#808080;" vertex="1" parent="47">
                    <mxGeometry x="45" y="165" width="60" height="30" as="geometry"/>
                </mxCell>
                <mxCell id="80" style="edgeStyle=entityRelationEdgeStyle;html=1;exitX=1;exitY=0.5;exitDx=0;exitDy=0;strokeColor=#808080;strokeWidth=2;fontSize=19;fontColor=#808080;" edge="1" parent="1" source="58" target="76">
                    <mxGeometry relative="1" as="geometry"/>
                </mxCell>
                <mxCell id="58" value="" style="swimlane;startSize=0;fillColor=#FF0000;strokeColor=#808080;" vertex="1" parent="1">
                    <mxGeometry x="439" y="157" width="132" height="214" as="geometry"/>
                </mxCell>
                <mxCell id="59" value="" style="verticalLabelPosition=bottom;html=1;verticalAlign=top;align=center;strokeColor=#005700;fillColor=#008a00;shape=mxgraph.azure.storage;pointerEvents=1;fontColor=#ffffff;" vertex="1" parent="58">
                    <mxGeometry x="15" y="9" width="91" height="169" as="geometry"/>
                </mxCell>
                <mxCell id="63" value="crimes_2019_2024" style="text;html=1;strokeColor=none;fillColor=none;align=center;verticalAlign=middle;whiteSpace=wrap;rounded=0;fontColor=#808080;" vertex="1" parent="58">
                    <mxGeometry x="15" y="181" width="110" height="30" as="geometry"/>
                </mxCell>
                <mxCell id="81" style="edgeStyle=entityRelationEdgeStyle;html=1;exitX=1;exitY=0.5;exitDx=0;exitDy=0;entryX=0;entryY=0.5;entryDx=0;entryDy=0;strokeColor=#808080;strokeWidth=2;fontSize=19;fontColor=#808080;" edge="1" parent="1" source="71" target="76">
                    <mxGeometry relative="1" as="geometry"/>
                </mxCell>
                <mxCell id="71" value="" style="swimlane;startSize=0;fillColor=#FF0000;strokeColor=#808080;" vertex="1" parent="1">
                    <mxGeometry x="439" y="399" width="132" height="214" as="geometry"/>
                </mxCell>
                <mxCell id="72" value="" style="verticalLabelPosition=bottom;html=1;verticalAlign=top;align=center;strokeColor=#005700;fillColor=#FF6666;shape=mxgraph.azure.storage;pointerEvents=1;fontColor=#ffffff;" vertex="1" parent="71">
                    <mxGeometry x="20" y="14" width="91" height="169" as="geometry"/>
                </mxCell>
                <mxCell id="73" value="Arrests_2019_2024" style="text;html=1;strokeColor=none;fillColor=none;align=center;verticalAlign=middle;whiteSpace=wrap;rounded=0;fontColor=#808080;" vertex="1" parent="71">
                    <mxGeometry x="15" y="181" width="110" height="30" as="geometry"/>
                </mxCell>
                <mxCell id="94" value="Data_Source_1" style="text;html=1;strokeColor=none;fillColor=none;align=center;verticalAlign=middle;whiteSpace=wrap;rounded=0;labelBackgroundColor=#FFFFFF;fontSize=19;fontColor=#808080;" vertex="1" parent="1">
                    <mxGeometry x="77" y="47" width="60" height="30" as="geometry"/>
                </mxCell>
                <mxCell id="95" value="Data_Source_2" style="text;html=1;strokeColor=none;fillColor=none;align=center;verticalAlign=middle;whiteSpace=wrap;rounded=0;labelBackgroundColor=#FFFFFF;fontSize=19;fontColor=#808080;" vertex="1" parent="1">
                    <mxGeometry x="71" y="352" width="60" height="30" as="geometry"/>
                </mxCell>
                <mxCell id="118" value="" style="swimlane;startSize=0;labelBackgroundColor=#FFFFFF;strokeColor=#808080;fontSize=19;fontColor=#808080;fillColor=#FF6666;strokeWidth=3;" vertex="1" parent="1">
                    <mxGeometry x="7" y="33" width="1710" height="726" as="geometry"/>
                </mxCell>
                <mxCell id="76" value="" style="swimlane;startSize=0;fillColor=#FF0000;strokeColor=#808080;" vertex="1" parent="118">
                    <mxGeometry x="770" y="125" width="230" height="216" as="geometry"/>
                </mxCell>
                <mxCell id="77" value="" style="verticalLabelPosition=bottom;html=1;verticalAlign=top;align=center;strokeColor=#005700;fillColor=#008a00;shape=mxgraph.azure.storage;pointerEvents=1;fontColor=#ffffff;" vertex="1" parent="76">
                    <mxGeometry x="20" y="14" width="91" height="169" as="geometry"/>
                </mxCell>
                <mxCell id="78" value="crimes_arrest_merged_2019_2024" style="text;html=1;strokeColor=none;fillColor=none;align=center;verticalAlign=middle;whiteSpace=wrap;rounded=0;fontColor=#808080;" vertex="1" parent="76">
                    <mxGeometry x="57" y="180" width="110" height="30" as="geometry"/>
                </mxCell>
                <mxCell id="79" value="" style="verticalLabelPosition=bottom;html=1;verticalAlign=top;align=center;strokeColor=#005700;fillColor=#FF6666;shape=mxgraph.azure.storage;pointerEvents=1;fontColor=#ffffff;" vertex="1" parent="76">
                    <mxGeometry x="111" y="14" width="91" height="169" as="geometry"/>
                </mxCell>
                <mxCell id="83" value="JOIN" style="text;html=1;strokeColor=none;fillColor=none;align=center;verticalAlign=middle;whiteSpace=wrap;rounded=0;labelBackgroundColor=#FFFFFF;fontSize=19;fontColor=#808080;" vertex="1" parent="118">
                    <mxGeometry x="691" y="225" width="60" height="30" as="geometry"/>
                </mxCell>
                <mxCell id="103" value="" style="swimlane;startSize=0;fillColor=#FF0000;strokeColor=#808080;" vertex="1" parent="118">
                    <mxGeometry x="1228" y="349.5" width="456" height="214" as="geometry"/>
                </mxCell>
                <mxCell id="104" value="" style="verticalLabelPosition=bottom;html=1;verticalAlign=top;align=center;strokeColor=#005700;fillColor=#008a00;shape=mxgraph.azure.storage;pointerEvents=1;fontColor=#ffffff;" vertex="1" parent="103">
                    <mxGeometry x="20" y="14" width="91" height="169" as="geometry"/>
                </mxCell>
                <mxCell id="105" value="merged_all" style="text;html=1;strokeColor=none;fillColor=none;align=center;verticalAlign=middle;whiteSpace=wrap;rounded=0;fontColor=#808080;" vertex="1" parent="103">
                    <mxGeometry x="152" y="183" width="110" height="30" as="geometry"/>
                </mxCell>
                <mxCell id="106" value="" style="verticalLabelPosition=bottom;html=1;verticalAlign=top;align=center;strokeColor=#005700;fillColor=#FF6666;shape=mxgraph.azure.storage;pointerEvents=1;fontColor=#ffffff;" vertex="1" parent="103">
                    <mxGeometry x="111" y="14" width="91" height="169" as="geometry"/>
                </mxCell>
                <mxCell id="107" value="" style="verticalLabelPosition=bottom;html=1;verticalAlign=top;align=center;shape=mxgraph.azure.storage;pointerEvents=1;fillColor=#b1ddf0;strokeColor=#10739e;" vertex="1" parent="103">
                    <mxGeometry x="202" y="14" width="114" height="170" as="geometry"/>
                </mxCell>
                <mxCell id="108" value="" style="verticalLabelPosition=bottom;html=1;verticalAlign=top;align=center;strokeColor=#56517e;fillColor=#d0cee2;shape=mxgraph.azure.storage;pointerEvents=1;" vertex="1" parent="103">
                    <mxGeometry x="316" y="14" width="114" height="171" as="geometry"/>
                </mxCell>
                <mxCell id="109" style="edgeStyle=entityRelationEdgeStyle;html=1;exitX=1;exitY=0.5;exitDx=0;exitDy=0;strokeColor=#808080;strokeWidth=2;fontSize=19;fontColor=#808080;" edge="1" parent="118" source="76" target="103">
                    <mxGeometry relative="1" as="geometry"/>
                </mxCell>
                <mxCell id="114" value="enriched data" style="text;html=1;strokeColor=none;fillColor=none;align=center;verticalAlign=middle;whiteSpace=wrap;rounded=0;labelBackgroundColor=#FFFFFF;fontSize=19;fontColor=#808080;" vertex="1" parent="118">
                    <mxGeometry x="1200" y="319.5" width="175" height="30" as="geometry"/>
                </mxCell>
                <mxCell id="101" value="Data_Source_3" style="text;html=1;strokeColor=none;fillColor=none;align=center;verticalAlign=middle;whiteSpace=wrap;rounded=0;labelBackgroundColor=#FFFFFF;fontSize=19;fontColor=#808080;" vertex="1" parent="118">
                    <mxGeometry x="810" y="378" width="60" height="30" as="geometry"/>
                </mxCell>
                <mxCell id="121" style="edgeStyle=entityRelationEdgeStyle;html=1;exitX=1;exitY=0.5;exitDx=0;exitDy=0;entryX=0;entryY=0.5;entryDx=0;entryDy=0;strokeColor=#808080;strokeWidth=2;fontSize=19;fontColor=#808080;startArrow=none;" edge="1" parent="118" source="122" target="103">
                    <mxGeometry relative="1" as="geometry"/>
                </mxCell>
                <mxCell id="84" value="" style="swimlane;startSize=0;fillColor=#FF0000;strokeColor=#808080;" vertex="1" parent="118">
                    <mxGeometry x="773" y="408" width="215" height="97" as="geometry"/>
                </mxCell>
                <mxCell id="86" value="" style="verticalLabelPosition=bottom;html=1;verticalAlign=top;align=center;shape=mxgraph.azure.storage;pointerEvents=1;fillColor=#b1ddf0;strokeColor=#10739e;" vertex="1" parent="84">
                    <mxGeometry x="47" y="43" width="114" height="39" as="geometry"/>
                </mxCell>
                <mxCell id="90" value="economic_indicators" style="text;html=1;strokeColor=none;fillColor=none;align=center;verticalAlign=middle;whiteSpace=wrap;rounded=0;fontColor=#808080;" vertex="1" parent="84">
                    <mxGeometry x="74" y="13" width="60" height="30" as="geometry"/>
                </mxCell>
                <mxCell id="102" value="Data_Source_4" style="text;html=1;strokeColor=none;fillColor=none;align=center;verticalAlign=middle;whiteSpace=wrap;rounded=0;labelBackgroundColor=#FFFFFF;fontSize=19;fontColor=#808080;" vertex="1" parent="118">
                    <mxGeometry x="807" y="527" width="60" height="30" as="geometry"/>
                </mxCell>
                <mxCell id="96" value="" style="swimlane;startSize=0;fillColor=#FF0000;strokeColor=#808080;" vertex="1" parent="118">
                    <mxGeometry x="770" y="557" width="215" height="75" as="geometry"/>
                </mxCell>
                <mxCell id="98" value="" style="verticalLabelPosition=bottom;html=1;verticalAlign=top;align=center;strokeColor=#56517e;fillColor=#d0cee2;shape=mxgraph.azure.storage;pointerEvents=1;" vertex="1" parent="96">
                    <mxGeometry x="39" y="26" width="114" height="39" as="geometry"/>
                </mxCell>
                <mxCell id="100" value="disadvantaged_areas" style="text;html=1;strokeColor=none;fillColor=none;align=center;verticalAlign=middle;whiteSpace=wrap;rounded=0;fontColor=#808080;" vertex="1" parent="96">
                    <mxGeometry x="68" width="60" height="30" as="geometry"/>
                </mxCell>
                <mxCell id="111" style="edgeStyle=entityRelationEdgeStyle;html=1;exitX=1;exitY=0.5;exitDx=0;exitDy=0;entryX=0;entryY=0.5;entryDx=0;entryDy=0;strokeColor=#808080;strokeWidth=2;fontSize=19;fontColor=#808080;" edge="1" parent="118" source="96" target="103">
                    <mxGeometry relative="1" as="geometry"/>
                </mxCell>
                <mxCell id="124" value="" style="edgeStyle=entityRelationEdgeStyle;html=1;exitX=1;exitY=0.5;exitDx=0;exitDy=0;entryX=0;entryY=0.5;entryDx=0;entryDy=0;strokeColor=#808080;strokeWidth=2;fontSize=19;fontColor=#808080;endArrow=none;" edge="1" parent="118" source="84" target="122">
                    <mxGeometry relative="1" as="geometry">
                        <mxPoint x="995" y="489.5" as="sourcePoint"/>
                        <mxPoint x="1235" y="489.5" as="targetPoint"/>
                    </mxGeometry>
                </mxCell>
                <mxCell id="122" value="JOIN_LEFT" style="text;html=1;strokeColor=none;fillColor=none;align=center;verticalAlign=middle;whiteSpace=wrap;rounded=0;labelBackgroundColor=#FFFFFF;fontSize=19;fontColor=#808080;" vertex="1" parent="118">
                    <mxGeometry x="1091" y="445" width="124" height="23" as="geometry"/>
                </mxCell>
            </root>
        </mxGraphModel>
    </diagram>
</mxfile>